<?xml version="1.0" standalone="no"?>
<!DOCTYPE svg PUBLIC "-//W3C//DTD SVG 20010904//EN"
 "http://www.w3.org/TR/2001/REC-SVG-20010904/DTD/svg10.dtd">
<svg version="1.0" xmlns="http://www.w3.org/2000/svg"
 width="260.000000pt" height="260.000000pt" viewBox="0 0 260.000000 260.000000"
 preserveAspectRatio="xMidYMid meet">
<metadata>
Created by potrace 1.11, written by Peter Selinger 2001-2013
</metadata>
<g transform="translate(0.000000,260.000000) scale(0.100000,-0.100000)"
fill="#000000" stroke="none">
<path d="M187 2364 c-5 -6 42 -67 121 -160 15 -17 61 -52 102 -79 84 -54 300
-265 374 -365 53 -72 96 -118 96 -103 0 14 -26 64 -37 72 -5 3 -23 26 -39 51
-67 99 -86 125 -123 169 -21 25 -56 66 -76 91 -86 104 -172 178 -331 283 -76
50 -77 50 -87 41z"/>
<path d="M708 2145 c-6 -6 44 -110 68 -142 9 -13 22 -23 29 -23 12 0 32 -21
89 -91 11 -13 37 -57 58 -97 44 -84 65 -139 119 -312 21 -66 24 -71 27 -42 3
30 -14 114 -38 197 -5 17 -17 55 -25 85 -28 94 -68 179 -120 250 -50 70 -58
78 -125 127 -69 50 -76 54 -82 48z"/>
<path d="M1158 1914 c-4 -3 4 -36 17 -72 19 -56 31 -74 71 -106 116 -92 138
-195 85 -404 -11 -43 -14 -50 -44 -110 -9 -19 -17 -39 -17 -46 0 -7 -11 -34
-25 -60 -30 -56 -33 -81 -5 -46 25 32 110 205 110 223 0 7 3 17 6 20 15 15 44
118 55 199 26 177 -28 288 -186 379 -53 31 -58 32 -67 23z"/>
<path d="M1626 1621 c-11 -17 34 -145 60 -172 34 -36 35 -92 2 -140 -79 -115
-135 -174 -478 -497 -47 -44 -82 -83 -79 -87 4 -3 23 9 42 27 20 18 62 54 94
80 32 25 68 54 79 65 12 10 68 54 125 98 186 145 280 230 331 303 92 129 67
207 -95 296 -71 39 -73 40 -81 27z"/>
<path d="M2045 1303 c4 -21 10 -57 14 -80 5 -27 18 -52 34 -67 54 -50 25 -96
-126 -194 -109 -71 -188 -115 -377 -215 -36 -18 -74 -39 -85 -45 -22 -11 -276
-132 -515 -244 -81 -38 -270 -130 -279 -135 -2 -2 -2 -6 2 -9 3 -3 20 1 38 10
18 9 38 16 46 16 7 0 21 4 31 9 30 15 106 48 142 61 19 7 63 26 98 41 34 16
67 29 72 29 6 0 18 4 28 10 16 9 125 52 277 110 11 4 38 15 60 23 22 9 94 37
160 62 136 52 159 61 198 81 16 8 33 14 38 14 10 0 86 34 246 111 108 53 158
88 201 142 13 18 17 73 5 79 -5 2 -21 22 -37 46 -24 35 -148 132 -170 132 -4
0 -24 11 -46 25 -55 35 -64 33 -55 -12z"/>
</g>
</svg>
